<?xml version="1.0" encoding="iso-8859-1"?>
<!-- Generator: Adobe Illustrator 19.0.0, SVG Export Plug-In . SVG Version: 6.00 Build 0)  -->
<svg version="1.1" id="Layer_1" xmlns="http://www.w3.org/2000/svg" xmlns:xlink="http://www.w3.org/1999/xlink" x="0px" y="0px"
	 viewBox="0 0 512 512" style="enable-background:new 0 0 512 512;" xml:space="preserve">
<g>
	<g>
		<g>
			<path fill="#FFAB40" d="M394.667,64c-64.698,0-117.333,52.635-117.333,117.333s52.635,117.333,117.333,117.333S512,246.031,512,181.333
				S459.365,64,394.667,64z M434.208,220.875c-2.083,2.083-4.813,3.125-7.542,3.125s-5.458-1.042-7.542-3.125l-32-32
				c-2-2-3.125-4.708-3.125-7.542v-64c0-5.896,4.771-10.667,10.667-10.667s10.667,4.771,10.667,10.667v59.583l28.875,28.875
				C438.375,209.958,438.375,216.708,434.208,220.875z"/>
			<path fill="#FFAB40" d="M422.99,320.906c-2.344-2.021-5.479-2.969-8.5-2.5c-7.583,1.083-13.885,1.594-19.823,1.594
				c-73.896,0-134.656-57.865-138.302-131.75c-0.188-3.708-2.292-7.083-5.563-8.865c-3.281-1.771-7.219-1.729-10.448,0.135
				c-0.688,0.271-2.969,1.406-3.583,1.813l-2.104,1.406V42.667C234.667,19.135,215.531,0,192,0s-42.667,19.135-42.667,42.667
				v285.479c0,5.375-3.542,8.135-5.063,9.073c-1.521,0.948-5.604,2.875-10.375,0.469l-68.5-34.25
				c-6.24-3.125-13.229-4.771-20.208-4.771C20.271,298.667,0,318.938,0,343.854V352c0,2.958,1.229,5.781,3.385,7.802L126.5,474.698
				C152.26,498.75,185.865,512,221.125,512H320c58.813,0,106.667-47.854,106.667-106.667v-76.365
				C426.667,325.875,425.323,322.938,422.99,320.906z"/>
		</g>
	</g>
</g>
<g>
</g>
<g>
</g>
<g>
</g>
<g>
</g>
<g>
</g>
<g>
</g>
<g>
</g>
<g>
</g>
<g>
</g>
<g>
</g>
<g>
</g>
<g>
</g>
<g>
</g>
<g>
</g>
<g>
</g>
</svg>
